<svg viewBox="0 0 24 24" xmlns="http://www.w3.org/2000/svg" aria-hidden="true">
  <path d="M12 8.5a3.5 3.5 0 1 0 0 7 3.5 3.5 0 0 0 0-7Zm9.44 3.07-.99-.57a8.01 8.01 0 0 0-.25-1.03l.68-.93a1 1 0 0 0-.12-1.3l-1.4-1.4a1 1 0 0 0-1.3-.12l-.93.68c-.34-.12-.69-.2-1.05-.26l-.56-1a1 1 0 0 0-.94-.56h-1.98a1 1 0 0 0-.94.56l-.56 1c-.36.06-.71.14-1.05.26l-.93-.68a1 1 0 0 0-1.3.12L3.24 7.74a1 1 0 0 0-.12 1.3l.68.93c-.1.34-.18.69-.24 1.05l-.99.56a1 1 0 0 0-.56.94v1.98c0 .39.22.75.56.94l1 .56c.06.36.14.72.24 1.06l-.68.93a1 1 0 0 0 .12 1.3l1.4 1.4c.33.33.86.39 1.24.12l.93-.68c.34.12.69.2 1.05.26l.56 1a1 1 0 0 0 .94.56h1.98c.39 0 .75-.22.94-.56l.56-1c.36-.06.71-.14 1.05-.26l.93.68c.38.27.9.21 1.24-.12l1.4-1.4a1 1 0 0 0 .12-1.3l-.68-.93c.1-.34.18-.7.25-1.06l.99-.56a1 1 0 0 0 .56-.94v-1.98a1 1 0 0 0-.56-.94ZM12 17a5 5 0 1 1 0-10 5 5 0 0 1 0 10Z"/>
</svg>